<svg width="32" height="32" viewBox="0 0 32 32" fill="none" xmlns="http://www.w3.org/2000/svg">
<g clip-path="url(#clip0_586_286)">
<path d="M18.7694 20.5264C18.7694 20.9738 17.8607 21.3388 16.7393 21.3388C15.6171 21.3388 14.7084 20.9753 14.7084 20.5264C14.7084 20.0768 15.6171 19.7141 16.7393 19.7141C17.8592 19.7155 18.7694 20.0768 18.7694 20.5264ZM11.9564 15.5596C11.0757 15.5596 10.3575 16.2778 10.3575 17.1608C10.3575 18.0416 11.0757 18.759 11.9564 18.759C12.8387 18.759 13.5569 18.0416 13.5569 17.1608C13.5569 16.2778 12.8394 15.5596 11.9564 15.5596ZM21.5199 15.5596C20.6384 15.5596 19.9195 16.2778 19.9195 17.1608C19.9195 18.0416 20.6384 18.759 21.5199 18.759C22.4007 18.759 23.1188 18.0416 23.1188 17.1608C23.1188 16.2778 22.4007 15.5596 21.5199 15.5596ZM32.0001 19.628C32.0001 21.7332 30.686 23.5241 28.8729 24.1444C26.5492 28.5623 21.9062 31.4136 16.7599 31.4136C11.6172 31.4136 6.98158 28.5711 4.65713 24.1628C2.81612 23.5624 1.47619 21.756 1.47619 19.6302C1.47619 18.1085 2.16418 16.7502 3.22891 15.879C3.32383 15.0232 3.47614 14.0843 3.69321 13.2006C1.75065 12.5413 0.49976 11.9026 0.395274 11.8467C0.134058 11.7098 -0.0211994 11.431 0.00234677 11.1352C0.025893 10.8408 0.224564 10.5892 0.504911 10.4957C0.530664 10.4869 3.06997 9.626 6.05813 7.12127C6.61735 6.65256 7.16995 6.13969 7.70342 5.64375C10.1368 3.38699 12.6533 1.05224 17.3154 1.00147L17.6311 1C20.4846 1 22.266 1.51654 23.3741 4.15445C23.4911 4.0794 23.6103 4.01023 23.7391 3.95063C26.1187 2.84102 29.3365 4.70632 30.9281 8.11536C32.3232 11.1087 30.2975 15.8738 30.3011 15.918C31.335 16.7899 32.0001 18.1269 32.0001 19.628ZM29.0569 19.628C29.0569 18.6928 28.4351 17.9319 27.6345 17.8414C27.4042 18.2196 27.1459 18.5846 26.8553 18.9319C27.0849 18.1475 27.232 17.344 27.2887 16.5412C25.3954 16.1969 23.4352 14.5604 22.3028 12.13C22.2594 12.0395 22.2263 11.949 22.188 11.8585C21.2881 12.4184 20.1586 12.9673 18.7554 13.5192C16.7739 14.2999 14.5701 14.6951 12.2088 14.6951C10.1647 14.6951 8.22585 14.4037 6.52685 14.0071C6.36938 14.6664 6.24871 15.3882 6.1685 16.085C6.19426 17.0386 6.34657 17.9981 6.6203 18.9319C6.32965 18.5824 6.07211 18.2189 5.84254 17.8414C5.04049 17.9319 4.41799 18.6905 4.41799 19.628C4.41799 20.6243 5.12143 21.43 5.99706 21.43C6.2156 21.43 6.42236 21.3807 6.6122 21.2917C8.0419 25.4638 12.0403 28.4703 16.7577 28.4703C21.4721 28.4703 25.4653 25.4682 26.9017 21.3049C27.079 21.3851 27.274 21.4337 27.4763 21.4337C28.3542 21.4329 29.0569 20.6243 29.0569 19.628Z" fill="#FFFFFF"/>
</g>
<defs>
<clipPath id="clip0_586_286">
<rect width="32" height="32" fill="white"/>
</clipPath>
</defs>
</svg>
