<svg width="37" height="37" viewBox="0 0 37 37" fill="none" xmlns="http://www.w3.org/2000/svg">
<path d="M26.209 21.5833C26.209 20.7319 25.5187 20.0417 24.6673 20.0417C23.8159 20.0417 23.1257 20.7319 23.1257 21.5833C23.1257 22.4348 23.8159 23.125 24.6673 23.125C25.5187 23.125 26.209 22.4348 26.209 21.5833Z" fill="#0F0F0F"/>
<path d="M24.6673 26.2083C25.5187 26.2083 26.209 26.8985 26.209 27.75C26.209 28.6015 25.5187 29.2917 24.6673 29.2917C23.8159 29.2917 23.1257 28.6015 23.1257 27.75C23.1257 26.8985 23.8159 26.2083 24.6673 26.2083Z" fill="#0F0F0F"/>
<path d="M20.041 21.5833C20.041 20.7319 19.3508 20.0417 18.4993 20.0417C17.6479 20.0417 16.9577 20.7319 16.9577 21.5833C16.9577 22.4348 17.6479 23.125 18.4993 23.125C19.3508 23.125 20.041 22.4348 20.041 21.5833Z" fill="#0F0F0F"/>
<path d="M18.4993 26.2083C19.3508 26.2083 20.041 26.8985 20.041 27.75C20.041 28.6015 19.3508 29.2917 18.4993 29.2917C17.6479 29.2917 16.9577 28.6015 16.9577 27.75C16.9577 26.8985 17.6479 26.2083 18.4993 26.2083Z" fill="#0F0F0F"/>
<path d="M13.875 21.5833C13.875 20.7319 13.1848 20.0417 12.3333 20.0417C11.4819 20.0417 10.7917 20.7319 10.7917 21.5833C10.7917 22.4348 11.4819 23.125 12.3333 23.125C13.1848 23.125 13.875 22.4348 13.875 21.5833Z" fill="#0F0F0F"/>
<path d="M12.3333 26.2083C13.1848 26.2083 13.875 26.8985 13.875 27.75C13.875 28.6015 13.1848 29.2917 12.3333 29.2917C11.4819 29.2917 10.7917 28.6015 10.7917 27.75C10.7917 26.8985 11.4819 26.2083 12.3333 26.2083Z" fill="#0F0F0F"/>
<path fill-rule="evenodd" clip-rule="evenodd" d="M27.7493 3.08333C27.7493 2.2319 27.0591 1.54166 26.2077 1.54166C25.3562 1.54166 24.666 2.2319 24.666 3.08333V4.625H12.3327V3.08333C12.3327 2.2319 11.6425 1.54166 10.791 1.54166C9.93955 1.54166 9.24935 2.2319 9.24935 3.08333V4.625H7.70768C5.15329 4.625 3.08268 6.69569 3.08268 9.25V30.8333C3.08268 33.3877 5.15329 35.4583 7.70768 35.4583H29.291C31.8453 35.4583 33.916 33.3877 33.916 30.8333V9.25C33.916 6.69569 31.8453 4.625 29.291 4.625H27.7493V3.08333ZM12.3327 7.70833V9.25C12.3327 10.1014 11.6425 10.7917 10.791 10.7917C9.93955 10.7917 9.24935 10.1014 9.24935 9.25V7.70833H7.70768C6.85622 7.70833 6.16601 8.39857 6.16601 9.25V13.875H30.8327V9.25C30.8327 8.39857 30.1424 7.70833 29.291 7.70833H27.7493V9.25C27.7493 10.1014 27.0591 10.7917 26.2077 10.7917C25.3562 10.7917 24.666 10.1014 24.666 9.25V7.70833H12.3327ZM30.8327 16.9583V30.8333C30.8327 31.6848 30.1424 32.375 29.291 32.375H7.70768C6.85622 32.375 6.16601 31.6848 6.16601 30.8333V16.9583H30.8327Z" fill="#0F0F0F"/>
</svg>
