<svg width="41" height="31" viewBox="0 0 41 31" fill="none" xmlns="http://www.w3.org/2000/svg">
<path d="M13.81 30.0683H19.3924C19.4476 30.0683 19.501 30.0595 19.5525 30.0458C26.6609 30.0458 33.3762 30.0458 40.3633 30.0682C40.3655 30.0682 40.3679 30.0682 40.3702 30.0682C40.3896 30.0695 40.4048 30.0676 40.5212 30.05C40.6863 30.0094 40.8289 29.9031 40.9164 29.7524C40.9168 29.7517 40.9172 29.7509 40.9203 29.7455C40.9306 29.7269 40.94 29.7078 40.9618 29.6547C40.9623 29.6533 40.9629 29.6519 40.9634 29.6506C40.9691 29.6343 40.9742 29.6178 40.9787 29.6013C40.979 29.6002 40.9792 29.5994 40.9896 29.5527C41.0307 29.3297 40.9485 29.0985 40.7692 28.9518C37.584 26.3369 35.3363 22.3072 34.0885 16.9747C34.0093 16.6363 33.6709 16.426 33.3323 16.5053C32.9939 16.5845 32.7837 16.923 32.8629 17.2615C34.0106 22.1666 35.9838 26.0406 38.738 28.8047C32.3422 28.7872 26.133 28.7872 19.5923 28.7872C18.9931 28.2874 18.4438 27.7455 17.9411 27.1731C17.9188 27.1475 17.8965 27.1223 17.8742 27.0973C15.4086 24.2531 14.0685 20.6914 13.3537 17.9671C12.747 15.6548 12.4943 13.61 12.3899 12.401C12.3766 12.2326 12.3647 12.0636 12.3539 11.8943C18.9291 11.9198 25.604 11.9206 32.0821 11.9207C32.11 12.7527 32.1932 13.5818 32.3306 14.3935C32.3826 14.7007 32.6489 14.9179 32.9504 14.9179C32.9852 14.9179 33.0205 14.915 33.0561 14.909C33.3988 14.8511 33.6296 14.5263 33.5716 14.1835C33.4115 13.2364 33.3302 12.2633 33.3302 11.2913C33.3302 10.9437 33.0484 10.6619 32.7009 10.6619C25.812 10.6619 18.6887 10.6619 11.6915 10.6329C11.6907 10.6329 11.6897 10.6329 11.6888 10.6329H10.6399V7.23377V2.23215V1.56086C10.6399 1.21331 10.3581 0.931519 10.0106 0.931519C9.66302 0.931519 9.38122 1.21331 9.38122 1.56086V1.79589L3.11581 4.14362C2.87013 4.23571 2.70733 4.47059 2.70733 4.73292C2.70733 4.99526 2.87013 5.23021 3.11581 5.32222L9.38122 7.66996V10.6329H8.33244C7.98946 10.6329 7.70967 10.9075 7.70318 11.2503C7.7019 11.3147 7.54871 17.7502 4.61095 23.4268C4.45127 23.7355 4.57195 24.1153 4.88065 24.2749C5.18952 24.4348 5.56917 24.3139 5.72885 24.0052C8.2924 19.0515 8.82508 13.6891 8.93414 11.8915H11.0878C11.1033 12.1416 11.1273 12.4621 11.1637 12.8409C11.686 18.2597 13.292 23.3429 16.7243 27.6162C16.9342 27.8776 17.1392 28.1431 17.3245 28.4228C17.331 28.4325 17.3377 28.442 17.3446 28.4513C17.4517 28.5941 17.572 28.7088 17.6897 28.8094H14.1538C12.5793 26.3162 11.3917 23.3315 10.6245 19.9288C10.5598 19.6418 10.3048 19.4379 10.0106 19.4379C9.71635 19.4379 9.46146 19.6418 9.39676 19.9288C8.62961 23.3314 7.44204 26.3161 5.86754 28.8094H2.27258C2.94196 28.1429 3.56873 27.404 4.14577 26.6005C4.34853 26.3182 4.28399 25.925 4.00171 25.7222C3.71952 25.5195 3.32633 25.584 3.12341 25.8663C2.26657 27.0594 1.29474 28.0963 0.235064 28.9482C0.0269406 29.1155 -0.0528976 29.3959 0.0357492 29.6477C0.124476 29.8996 0.362389 30.0681 0.629371 30.0681H6.21356C6.21348 30.0683 13.8083 30.0683 13.81 30.0683ZM9.38154 6.32592L5.13058 4.733L9.38154 3.14016V6.32592ZM7.34291 28.8096C8.43109 26.9525 9.32405 24.8602 10.0109 22.5587C10.6979 24.8603 11.5907 26.9527 12.6789 28.8096H7.34291Z" fill="#FFFFFF"/>
</svg>
