<svg width="34" height="34" viewBox="0 0 34 34" fill="none" xmlns="http://www.w3.org/2000/svg">
<path d="M17 0.40625C7.83575 0.40625 0.40625 7.83575 0.40625 17C0.40625 26.1642 7.83575 33.5938 17 33.5938C26.1642 33.5938 33.5938 26.1642 33.5938 17C33.5825 7.84025 26.1586 0.4175 17 0.40625ZM17 31.9062C8.76725 31.9062 2.09375 25.2327 2.09375 17C2.09375 8.76725 8.76725 2.09375 17 2.09375C25.2327 2.09375 31.9062 8.76725 31.9062 17C31.8972 25.2283 25.2271 31.8972 17 31.9062ZM17.8438 16.6501V5.75C17.8438 5.28425 17.4657 4.90625 17 4.90625C16.5343 4.90625 16.1562 5.28425 16.1562 5.75V17C16.1562 17.2329 16.2508 17.4444 16.4038 17.5963L20.9026 22.0974C21.0556 22.2504 21.2671 22.3449 21.5 22.3449C21.9669 22.3449 22.3449 21.9669 22.3449 21.5C22.3449 21.2671 22.2504 21.0556 22.0974 20.9026L17.8438 16.6501Z" fill="#000000"/>
</svg>
