<svg width="31" height="25" viewBox="0 0 31 25" fill="none" xmlns="http://www.w3.org/2000/svg">
<path fill-rule="evenodd" clip-rule="evenodd" d="M30.9168 0.166687V24.8334H0.0834961V0.166687H30.9168ZM27.8335 3.25002H3.16683V21.75H27.8335V3.25002ZM24.7502 15.5834V17.8959H17.0418V15.5834H24.7502ZM10.6825 11.4209C12.9102 11.4209 14.7293 13.2709 14.7293 15.5834H5.47933C5.47933 13.2709 7.29118 11.4209 9.5262 11.4209H10.6825ZM24.7502 10.9584V13.2709H17.0418V10.9584H24.7502ZM10.1043 5.84866C11.2218 5.84866 12.1278 6.75459 12.1278 7.8721C12.1278 8.98961 11.2218 9.89554 10.1043 9.89554C8.98682 9.89554 8.08089 8.98961 8.08089 7.8721C8.08089 6.75459 8.98682 5.84866 10.1043 5.84866ZM24.7502 6.33335V8.64585H17.0418V6.33335H24.7502Z" fill="#FFFFFF"/>
</svg>
