<svg width="17" height="33" viewBox="0 0 17 33" fill="none" xmlns="http://www.w3.org/2000/svg">
<path d="M0.542801 17.5758H4.23179V32.4677C4.23179 32.7618 4.47475 33 4.77459 33H11.0294C11.3292 33 11.5722 32.7618 11.5722 32.4677V17.646H15.813C16.0887 17.646 16.3207 17.4431 16.3522 17.1745L16.9963 11.692C17.014 11.5412 16.9653 11.3901 16.8623 11.277C16.7593 11.1637 16.6119 11.0989 16.4572 11.0989H11.5724V7.66217C11.5724 6.62619 12.1413 6.10085 13.2634 6.10085C13.4233 6.10085 16.4572 6.10085 16.4572 6.10085C16.757 6.10085 17 5.8625 17 5.56859V0.536197C17 0.242177 16.757 0.00393871 16.4572 0.00393871H12.0556C12.0246 0.00244839 11.9556 0 11.854 0C11.0903 0 8.43568 0.14701 6.33873 2.03865C4.01532 4.1349 4.33829 6.64482 4.41547 7.07999V11.0988H0.542801C0.242958 11.0988 0 11.337 0 11.631V17.0434C0 17.3375 0.242958 17.5758 0.542801 17.5758Z" fill="black"/>
</svg>
