<svg width="41" height="41" viewBox="0 0 41 41" fill="none" xmlns="http://www.w3.org/2000/svg">
<g clip-path="url(#clip0_586_297)">
<path d="M34.5938 17.2456L28.1875 12.8125L19.68 19.2956L15.375 15.375L6.40625 21.7556V28.1875H34.5938V17.2456ZM31.3906 24.9331H9.60938V23.4213L15.1188 19.475L17.5275 21.6788L19.5006 23.4725L21.6275 21.8581L28.2644 16.7331L31.3906 18.8856V24.9331Z" fill="#FFFFFF"/>
<path d="M8.45625 16.6562C9.58843 16.6562 10.5062 15.7958 10.5062 14.7344C10.5062 13.673 9.58843 12.8125 8.45625 12.8125C7.32407 12.8125 6.40625 13.673 6.40625 14.7344C6.40625 15.7958 7.32407 16.6562 8.45625 16.6562Z" fill="#FFFFFF"/>
<path d="M37.7969 6.40625H3.20312C2.3536 6.40625 1.53888 6.74372 0.938174 7.34442C0.337471 7.94513 0 8.75985 0 9.60938L0 31.3906C0 32.2401 0.337471 33.0549 0.938174 33.6556C1.53888 34.2563 2.3536 34.5938 3.20312 34.5938H37.7969C38.6464 34.5938 39.4611 34.2563 40.0618 33.6556C40.6625 33.0549 41 32.2401 41 31.3906V9.60938C41 8.75985 40.6625 7.94513 40.0618 7.34442C39.4611 6.74372 38.6464 6.40625 37.7969 6.40625ZM37.7969 31.3906H3.20312V9.60938H37.7969V31.3906Z" fill="#FFFFFF"/>
</g>
<defs>
<clipPath id="clip0_586_297">
<rect width="41" height="41" fill="white"/>
</clipPath>
</defs>
</svg>
