<svg width="14" height="14" viewBox="0 0 14 14" fill="none" xmlns="http://www.w3.org/2000/svg">
<path d="M13.8201 12.9884L10.6656 9.82842C11.5163 8.79129 12.0245 7.46274 12.0245 6.01705C12.0245 2.69424 9.33238 0 6.01224 0C2.69209 0 0 2.69424 0 6.01705C0 9.33986 2.69209 12.0341 6.01224 12.0341C7.46248 12.0341 8.79282 11.5198 9.83197 10.6627L12.9865 13.8198C13.3548 14.1569 13.7002 13.9398 13.8201 13.8198C14.06 13.5826 14.06 13.2255 13.8201 12.9884ZM1.17333 6.01705C1.17333 3.34281 3.34013 1.17427 6.01224 1.17427C8.68434 1.17427 10.854 3.34281 10.854 6.01705C10.854 8.69129 8.68719 10.8598 6.01509 10.8598C3.34299 10.8598 1.17333 8.69129 1.17333 6.01705Z" fill="#000000AF" fill-opacity="0.25"/>
</svg>
