<svg width="64" height="48" viewBox="0 0 64 48" fill="none" xmlns="http://www.w3.org/2000/svg">
<path d="M53.4226 47.974H10.5062C4.90657 47.974 0.351562 43.419 0.351562 37.8194V10.726C0.351562 5.12712 4.90728 0.571411 10.5062 0.571411H53.4226C59.0215 0.571411 63.5766 5.12712 63.5766 10.726V37.8194C63.5766 43.419 59.0215 47.974 53.4226 47.974ZM10.5062 3.54088C6.5441 3.54088 3.32103 6.76395 3.32103 10.726V37.8194C3.32103 41.7815 6.5441 45.0052 10.5062 45.0052H53.4226C57.3847 45.0052 60.6078 41.7815 60.6078 37.8194V10.726C60.6078 6.76395 57.3847 3.54088 53.4226 3.54088H10.5062Z" fill="black"/>
<path d="M8.10952 10.8673C15.6993 18.2632 23.2891 25.6584 30.879 33.0544C32.2938 34.4327 34.4652 32.2662 33.0483 30.885C25.4585 23.4898 17.8687 16.0939 10.2788 8.69869C8.86401 7.31968 6.69258 9.48689 8.10952 10.8673Z" fill="black"/>
<path d="M33.0491 33.0543C40.639 25.6591 48.2288 18.2631 55.8186 10.8679C57.2348 9.4875 55.0648 7.31959 53.6493 8.69859C46.0594 16.0938 38.4696 23.4897 30.8798 30.8849C29.4636 32.2654 31.6336 34.4333 33.0491 33.0543Z" fill="black"/>
<path d="M55.7342 38.2893C50.6839 33.4997 45.633 28.7107 40.5827 23.9211C39.1503 22.5631 36.9775 24.7282 38.4134 26.0904C43.4637 30.88 48.5146 35.669 53.5649 40.4586C54.9973 41.8166 57.1701 39.6508 55.7342 38.2893Z" fill="black"/>
<path d="M10.4995 40.458C15.5498 35.6683 20.6007 30.8794 25.651 26.0897C27.0862 24.7283 24.9148 22.5618 23.4817 23.9204C18.4314 28.7101 13.3804 33.499 8.33017 38.2887C6.89496 39.6501 9.06639 41.8173 10.4995 40.458Z" fill="black"/>
</svg>
