<svg width="32" height="33" viewBox="0 0 32 33" fill="none" xmlns="http://www.w3.org/2000/svg">
<path d="M31.2259 3.32226C30.7981 3.32226 30.4519 3.74734 30.4519 4.27272V28.842C30.4504 29.8128 29.8101 30.5971 29.0209 30.599H2.97913C2.18837 30.5971 1.54963 29.8128 1.54819 28.842V2.87301L3.89375 4.06575C4.082 4.16137 4.29744 4.16137 4.48644 4.06575L7.60687 2.4794L10.7266 4.06575C10.9149 4.16137 11.131 4.16137 11.3193 4.06575L14.4382 2.4794L17.5572 4.06575C17.7455 4.16137 17.9609 4.16137 18.1492 4.06575L21.2719 2.4794L24.3976 4.06575C24.5859 4.16137 24.8005 4.16137 24.9888 4.06575L27.3405 2.87209V27.2809C27.3405 27.8062 27.6866 28.2313 28.1146 28.2313C28.5424 28.2313 28.8886 27.8062 28.8886 27.2809V1.45097C28.8886 1.13356 28.7601 0.837488 28.5446 0.661057C28.33 0.483781 28.0578 0.450475 27.8189 0.572956L24.6933 2.15823L21.5675 0.572956C21.3792 0.476414 21.1646 0.476414 20.9763 0.572956L17.8536 2.15823L14.7346 0.572956C14.5464 0.476414 14.3302 0.476414 14.1419 0.572956L11.0229 2.15823L7.90319 0.572956C7.715 0.476414 7.4995 0.476414 7.31056 0.572956L4.19012 2.15823L1.07037 0.572956C0.83075 0.451242 0.559375 0.483781 0.343937 0.660213C0.1285 0.837488 0 1.13356 0 1.45097V28.842C0 30.8635 1.33419 32.499 2.97913 32.5H29.0209C30.6658 32.4991 31.9992 30.8635 32.0001 28.842V4.27272C32 3.74734 31.6537 3.32226 31.2259 3.32226Z" fill="#FFFFFF"/>
<path d="M13.4502 9.48175H5.07446V19.3605H13.4502V9.48175Z" fill="#FFFFFF"/>
<path d="M23.7067 9.59027H16.5488V11.1106H23.7067V9.59027Z" fill="#FFFFFF"/>
<path d="M23.7067 14.003H16.5488V15.5234H23.7067V14.003Z" fill="#FFFFFF"/>
<path d="M23.7067 18.4174H16.5488V19.9378H23.7067V18.4174Z" fill="#FFFFFF"/>
<path d="M23.7066 22.8301H5.07446V24.3504H23.7066V22.8301Z" fill="#FFFFFF"/>
</svg>
