<svg width="28" height="31" viewBox="0 0 28 31" fill="none" xmlns="http://www.w3.org/2000/svg">
<path fill-rule="evenodd" clip-rule="evenodd" d="M20.0379 7.49998C20.013 7.39238 19.9871 7.28454 19.9601 7.17659C19.6081 5.76849 19.0538 4.23842 18.1499 3.03331C17.2179 1.79067 15.8571 0.833313 13.9999 0.833313C12.1427 0.833313 10.7819 1.79067 9.84991 3.03331C8.94608 4.23842 8.39175 5.76849 8.03972 7.17661C8.01274 7.28454 7.9868 7.39238 7.96186 7.49998H5.82806C3.7222 7.49998 1.977 9.13271 1.83692 11.2339L0.859137 25.9005C0.70523 28.2093 2.53643 30.1666 4.85028 30.1666H23.1495C25.4634 30.1666 27.2946 28.2093 27.1407 25.9005L26.1629 11.2339C26.0229 9.13271 24.2777 7.49998 22.1718 7.49998H20.0379ZM8.66659 14.1666C9.43056 14.1666 9.99734 13.5912 9.99994 12.8309C10.0001 12.7992 10.0005 12.7674 10.001 12.7357C10.0022 12.6655 10.0046 12.5594 10.0095 12.4226C10.0193 12.1487 10.039 11.7533 10.0787 11.2774C10.1068 10.9397 10.1447 10.5648 10.1956 10.1666H17.8043C17.8551 10.5648 17.893 10.9397 17.9213 11.2774C17.9609 11.7533 17.9806 12.1487 17.9903 12.4226C17.9953 12.5594 17.9977 12.6655 17.9989 12.7357C17.9994 12.7684 17.9998 12.8011 17.9999 12.8338C17.9999 12.8338 17.9999 14.1666 19.3333 14.1666C20.6666 14.1666 20.6666 12.8315 20.6666 12.8315C20.6665 12.7848 20.6659 12.738 20.6651 12.6913C20.6637 12.6053 20.6609 12.4822 20.6553 12.3274C20.6443 12.018 20.6223 11.58 20.5786 11.0559C20.5559 10.7827 20.527 10.4841 20.4905 10.1666H22.1718C22.8738 10.1666 23.4555 10.7109 23.5022 11.4113L24.4799 26.078C24.5313 26.8476 23.9209 27.5 23.1495 27.5H4.85028C4.079 27.5 3.4686 26.8476 3.5199 26.078L4.49768 11.4113C4.54438 10.7109 5.12611 10.1666 5.82806 10.1666H7.50936C7.47279 10.4841 7.44396 10.7827 7.42119 11.0559C7.37752 11.58 7.35558 12.018 7.34452 12.3274C7.33899 12.4822 7.33618 12.6053 7.33475 12.6913C7.33398 12.7371 7.3334 12.7829 7.33326 12.8288C7.33224 13.5896 7.90436 14.1666 8.66659 14.1666ZM10.7113 7.49998H17.2886C16.9803 6.37094 16.5613 5.35953 16.0166 4.63331C15.4486 3.87595 14.8094 3.49998 13.9999 3.49998C13.1905 3.49998 12.5513 3.87595 11.9833 4.63331C11.4386 5.35953 11.0195 6.37094 10.7113 7.49998Z" fill="#FFFFFF"/>
</svg>
