<svg width="45" height="45" viewBox="0 0 45 45" fill="none" xmlns="http://www.w3.org/2000/svg">
<path d="M9.84375 33.75C8.29687 33.75 7.03125 32.4844 7.03125 30.9375V14.0625C7.03125 12.5156 8.29687 11.25 9.84375 11.25C11.3906 11.25 12.6562 12.5156 12.6562 14.0625V30.9375C12.6562 32.4844 11.3906 33.75 9.84375 33.75Z" stroke="#FFFFFF" stroke-width="2" stroke-miterlimit="10" stroke-linecap="round" stroke-linejoin="round"/>
<path d="M4.21875 29.5312C2.67187 29.5312 1.40625 28.2656 1.40625 26.7188V18.2812C1.40625 16.7344 2.67187 15.4688 4.21875 15.4688C5.76563 15.4688 7.03125 16.7344 7.03125 18.2812V26.7188C7.03125 28.2656 5.76563 29.5312 4.21875 29.5312Z" stroke="#FFFFFF" stroke-width="2" stroke-miterlimit="10" stroke-linecap="round" stroke-linejoin="round"/>
<path d="M35.1562 11.25C36.7031 11.25 37.9688 12.5156 37.9688 14.0625V30.9375C37.9688 32.4844 36.7031 33.75 35.1562 33.75C33.6094 33.75 32.3438 32.4844 32.3438 30.9375V14.0625C32.3438 12.5156 33.6094 11.25 35.1562 11.25Z" stroke="#FFFFFF" stroke-width="2" stroke-miterlimit="10" stroke-linecap="round" stroke-linejoin="round"/>
<path d="M40.7812 15.4688C42.3281 15.4688 43.5938 16.7344 43.5938 18.2812V26.7188C43.5938 28.2656 42.3281 29.5312 40.7812 29.5312C39.2344 29.5312 37.9688 28.2656 37.9688 26.7188V18.2812C37.9688 16.7344 39.2344 15.4688 40.7812 15.4688Z" stroke="#FFFFFF" stroke-width="2" stroke-miterlimit="10" stroke-linecap="round" stroke-linejoin="round"/>
<path d="M12.6562 22.5H32.3438" stroke="#FFFFFF" stroke-width="2" stroke-miterlimit="10" stroke-linecap="round" stroke-linejoin="round"/>
</svg>
